<svg width="28" height="28" viewBox="0 0 28 28" fill="none" xmlns="http://www.w3.org/2000/svg">
<g id="Iconly/Bulk/Discount">
<path id="Fill 1" opacity="0.4" d="M13.9988 25.6646C13.1016 25.6646 12.2056 25.3239 11.5208 24.6437L10.6691 23.7921C10.339 23.4631 9.89681 23.2811 9.42781 23.2799H8.22964C6.29298 23.2799 4.71681 21.7037 4.71681 19.7671V18.5677C4.71564 18.0999 4.53364 17.6577 4.20348 17.3252L3.36581 16.4887C1.99381 15.1249 1.98798 12.8954 3.35298 11.5222L4.20464 10.6694C4.53364 10.3392 4.71564 9.89707 4.71681 9.42807V8.23107C4.71681 6.29323 6.29298 4.71707 8.22964 4.71707H9.42898C9.89681 4.71707 10.3378 4.53507 10.6703 4.20257L11.5091 3.36607C12.873 1.99407 15.1013 1.98707 16.4756 3.35323L17.3273 4.2049C17.6586 4.53507 18.0996 4.71707 18.5675 4.71707H19.7668C21.7035 4.71707 23.2796 6.29323 23.2796 8.23107V9.42923C23.2808 9.89707 23.4628 10.3392 23.793 10.6717L24.6306 11.5094C25.2945 12.1697 25.662 13.0494 25.6655 13.9886C25.6678 14.9219 25.3085 15.8004 24.654 16.4642C24.6423 16.4759 24.6318 16.4887 24.6201 16.4992L23.7918 17.3276C23.4628 17.6577 23.2808 18.0999 23.2796 18.5689V19.7671C23.2796 21.7037 21.7035 23.2799 19.7668 23.2799H18.5675C18.0996 23.2811 17.6575 23.4631 17.3261 23.7932L16.4873 24.6309C15.8036 25.3192 14.9006 25.6646 13.9988 25.6646Z" fill="#5D175A"/>
<path id="Combined Shape" fill-rule="evenodd" clip-rule="evenodd" d="M11.7166 11.7261C11.5241 11.9186 11.2744 12.0224 10.9979 12.0224C10.7389 12.0224 10.4846 11.9162 10.2804 11.7249C10.0867 11.5324 9.97705 11.2687 9.97705 11.0016C9.97705 10.7472 10.0844 10.4859 10.2734 10.2841C10.3772 10.1791 10.5009 10.0997 10.6246 10.0577C10.9769 9.89673 11.4447 9.99123 11.7224 10.2829C11.8216 10.3821 11.8974 10.4906 11.9476 10.6037C12.0024 10.7251 12.0304 10.8627 12.0304 11.0016C12.0304 11.2792 11.9196 11.5371 11.7166 11.7261ZM17.7212 10.278C17.3234 9.88131 16.6759 9.88131 16.278 10.278L10.2814 16.2746C9.88354 16.6725 9.88354 17.32 10.2814 17.719C10.475 17.9115 10.7305 18.0176 11.0035 18.0176C11.2765 18.0176 11.532 17.9115 11.7245 17.719L17.7212 11.7223C18.119 11.3233 18.119 10.677 17.7212 10.278ZM17.39 16.0579C17.012 15.8992 16.564 15.9856 16.2654 16.2842C16.2035 16.3566 16.116 16.4686 16.0565 16.6004C15.9935 16.7427 15.9854 16.8956 15.9854 16.9982C15.9854 17.1009 15.9935 17.2526 16.0565 17.3949C16.1149 17.5256 16.1849 17.6317 16.277 17.7239C16.4882 17.9199 16.7332 18.0191 17.0062 18.0191C17.2652 18.0191 17.5195 17.9141 17.7284 17.7192C17.9139 17.5337 18.0154 17.2771 18.0154 16.9982C18.0154 16.7182 17.9139 16.4627 17.7272 16.2761C17.6245 16.1746 17.5009 16.0952 17.39 16.0579Z" fill="#5D175A"/>
</g>
</svg>
