<svg width="28" height="34" viewBox="0 0 28 34" fill="none" xmlns="http://www.w3.org/2000/svg">
<g id="Iconly/Bulk/Login">
<g id="Login">
<path id="Fill 1" opacity="0.4" d="M8.5127 9.03375C8.5127 5.66196 10.9158 2.91748 13.8694 2.91748H19.7404C22.6867 2.91748 25.0838 5.65508 25.0838 9.01999V24.312C25.0838 27.6852 22.6819 30.4311 19.7283 30.4311H13.8573C10.911 30.4311 8.5127 27.6921 8.5127 24.3258V23.0327V9.03375Z" fill="#5D175A"/>
<path id="Fill 4" d="M18.7106 15.9229L15.2481 11.921C14.8902 11.5083 14.3143 11.5083 13.9576 11.9238C13.6021 12.3392 13.6033 13.0092 13.96 13.4219L15.856 15.6133H3.82944C3.32582 15.6133 2.91699 16.0879 2.91699 16.674C2.91699 17.2586 3.32582 17.7319 3.82944 17.7319H15.856L13.96 19.9247C13.6033 20.3374 13.6021 21.0074 13.9576 21.4228C14.1365 21.6305 14.37 21.7351 14.6046 21.7351C14.8369 21.7351 15.0703 21.6305 15.2481 21.4256L18.7106 17.4237C18.8824 17.2242 18.9796 16.9546 18.9796 16.674C18.9796 16.392 18.8824 16.1223 18.7106 15.9229Z" fill="#5D175A"/>
</g>
<rect id="Rectangle 5" x="15" y="21.1661" width="4" height="2" rx="1" fill="white"/>
</g>
</svg>
