<svg width="28" height="28" viewBox="0 0 28 28" fill="none" xmlns="http://www.w3.org/2000/svg">
<g id="Iconly/Bulk/Bag">
<g id="Bag">
<path id="Combined Shape" fill-rule="evenodd" clip-rule="evenodd" d="M24.3988 19.0338L23.5018 11.8067C22.9553 9.22788 21.4086 8.16663 19.9342 8.16663H8.087C6.59192 8.16663 4.99374 9.15359 4.52975 11.8067L3.62239 19.0338C2.88001 24.3401 5.61239 25.6666 9.17995 25.6666H18.8516C22.4088 25.6666 25.0587 23.7458 24.3988 19.0338ZM10.613 14.1733C10.0435 14.1733 9.58189 13.6981 9.58189 13.112C9.58189 12.5259 10.0435 12.0508 10.613 12.0508C11.1824 12.0508 11.6441 12.5259 11.6441 13.112C11.6441 13.6981 11.1824 14.1733 10.613 14.1733ZM16.3356 13.112C16.3356 13.6981 16.7972 14.1733 17.3666 14.1733C17.9361 14.1733 18.3977 13.6981 18.3977 13.112C18.3977 12.5259 17.9361 12.0508 17.3666 12.0508C16.7972 12.0508 16.3356 12.5259 16.3356 13.112Z" fill="#5D175A"/>
<path id="Path_34167" opacity="0.4" d="M19.8032 7.90336C19.8068 7.99385 19.7894 8.08396 19.7524 8.16665H18.0757C18.0433 8.08258 18.0261 7.99343 18.0249 7.90336C18.0249 5.66627 16.2052 3.85276 13.9604 3.85276C11.7156 3.85276 9.89581 5.66627 9.89581 7.90336C9.91119 7.99045 9.91119 8.07955 9.89581 8.16665H8.17853C8.16315 8.07955 8.16315 7.99045 8.17853 7.90336C8.309 4.79021 10.8795 2.33331 14.0061 2.33331C17.1327 2.33331 19.7032 4.79021 19.8337 7.90336H19.8032Z" fill="#5D175A"/>
</g>
</g>
</svg>
