<svg width="28" height="28" viewBox="0 0 28 28" fill="none" xmlns="http://www.w3.org/2000/svg">
<g id="Iconly/Bulk/Wallet">
<g id="Wallet">
<path id="Fill 1" fill-rule="evenodd" clip-rule="evenodd" d="M25.6627 9.77098H20.7222C18.4231 9.77502 16.5606 11.591 16.5565 13.8327C16.5533 16.0794 18.4179 17.9034 20.7222 17.9065H25.6668V18.2634C25.6668 22.1825 23.291 24.5 19.2704 24.5H8.73098C4.70935 24.5 2.3335 22.1825 2.3335 18.2634V9.7275C2.3335 5.80839 4.70935 3.5 8.73098 3.5H19.2662C23.2868 3.5 25.6627 5.80839 25.6627 9.7275V9.77098ZM7.86294 9.76188H14.4429H14.4471H14.4554C14.948 9.75985 15.3462 9.36855 15.3441 8.88726C15.342 8.40697 14.9397 8.0187 14.4471 8.02072H7.86294C7.37346 8.02275 6.97627 8.41001 6.9742 8.88827C6.97212 9.36855 7.37035 9.75985 7.86294 9.76188Z" fill="#5D175A"/>
<path id="Fill 4" opacity="0.4" d="M18.7106 14.3461C18.9546 15.4558 19.9275 16.2366 21.0383 16.2163H24.8299C25.2921 16.2163 25.667 15.8335 25.667 15.3604V12.4069C25.666 11.9348 25.2921 11.551 24.8299 11.55H20.9491C19.6856 11.554 18.665 12.6028 18.667 13.8953C18.667 14.0466 18.6819 14.1979 18.7106 14.3461Z" fill="#5D175A"/>
<ellipse id="Oval" cx="21.0002" cy="13.8833" rx="1.16667" ry="1.16667" fill="#5D175A"/>
</g>
</g>
</svg>
