<svg width="24" height="24" viewBox="0 0 24 24" fill="none" xmlns="http://www.w3.org/2000/svg">
<g id="Iconly/Bulk/Time Circle">
<g id="Time Circle">
<path id="Fill 1" opacity="0.4" d="M22 11.9999C22 17.5239 17.523 21.9999 12 21.9999C6.477 21.9999 2 17.5239 2 11.9999C2 6.47788 6.477 1.99988 12 1.99988C17.523 1.99988 22 6.47788 22 11.9999Z" fill="#5D175A"/>
<path id="Fill 4" d="M15.5739 15.8144C15.4429 15.8144 15.3109 15.7804 15.1899 15.7094L11.2639 13.3674C11.0379 13.2314 10.8989 12.9864 10.8989 12.7224V7.67535C10.8989 7.26135 11.2349 6.92535 11.6489 6.92535C12.0629 6.92535 12.3989 7.26135 12.3989 7.67535V12.2964L15.9589 14.4194C16.3139 14.6324 16.4309 15.0924 16.2189 15.4484C16.0779 15.6834 15.8289 15.8144 15.5739 15.8144Z" fill="#5D175A"/>
</g>
</g>
</svg>
